<svg xmlns="http://www.w3.org/2000/svg" width="900" height="386" viewBox="0 0 900 386">
<rect width="100%" height="100%" fill="#ffffff"/>
<text x="24" y="34" font-family="Arial, sans-serif" font-size="22" font-weight="700" fill="#111827">Catalyst-Q Evidence Coverage</text>
<text x="24" y="88" font-family="Arial, sans-serif" font-size="14" fill="#111827">Knapsack</text>
<rect x="250" y="73" width="560" height="22" fill="#2563eb"/>
<text x="820" y="89" font-family="Arial, sans-serif" font-size="13" fill="#111827">2</text>
<text x="24" y="122" font-family="Arial, sans-serif" font-size="14" fill="#111827">MIP</text>
<rect x="250" y="107" width="280" height="22" fill="#2563eb"/>
<text x="540" y="123" font-family="Arial, sans-serif" font-size="13" fill="#111827">1</text>
<text x="24" y="156" font-family="Arial, sans-serif" font-size="14" fill="#111827">MaxSAT</text>
<rect x="250" y="141" width="280" height="22" fill="#2563eb"/>
<text x="540" y="157" font-family="Arial, sans-serif" font-size="13" fill="#111827">1</text>
<text x="24" y="190" font-family="Arial, sans-serif" font-size="14" fill="#111827">QP/MIQP/MIQCP</text>
<rect x="250" y="175" width="280" height="22" fill="#2563eb"/>
<text x="540" y="191" font-family="Arial, sans-serif" font-size="13" fill="#111827">1</text>
<text x="24" y="224" font-family="Arial, sans-serif" font-size="14" fill="#111827">QUBO/Max-Cut</text>
<rect x="250" y="209" width="280" height="22" fill="#2563eb"/>
<text x="540" y="225" font-family="Arial, sans-serif" font-size="13" fill="#111827">1</text>
<text x="24" y="258" font-family="Arial, sans-serif" font-size="14" fill="#111827">Quadratic Assignment</text>
<rect x="250" y="243" width="280" height="22" fill="#2563eb"/>
<text x="540" y="259" font-family="Arial, sans-serif" font-size="13" fill="#111827">1</text>
<text x="24" y="292" font-family="Arial, sans-serif" font-size="14" fill="#111827">Quantum-inspired optimization</text>
<rect x="250" y="277" width="280" height="22" fill="#2563eb"/>
<text x="540" y="293" font-family="Arial, sans-serif" font-size="13" fill="#111827">1</text>
<text x="24" y="326" font-family="Arial, sans-serif" font-size="14" fill="#111827">SAT</text>
<rect x="250" y="311" width="280" height="22" fill="#2563eb"/>
<text x="540" y="327" font-family="Arial, sans-serif" font-size="13" fill="#111827">1</text>
<text x="24" y="360" font-family="Arial, sans-serif" font-size="14" fill="#111827">TSP</text>
<rect x="250" y="345" width="560" height="22" fill="#2563eb"/>
<text x="820" y="361" font-family="Arial, sans-serif" font-size="13" fill="#111827">2</text>
</svg>