<svg xmlns="http://www.w3.org/2000/svg" width="900" height="340" viewBox="0 0 900 340">
<rect width="100%" height="100%" fill="#ffffff"/>
<text x="24" y="36" font-family="Arial, sans-serif" font-size="24" font-weight="700" fill="#111827">Catalyst-Q Evidence Scorecard</text>
<text x="24" y="96" font-family="Arial, sans-serif" font-size="15" fill="#111827">Route coverage</text>
<rect x="220" y="78" width="560" height="24" fill="#e5e7eb"/>
<rect x="220" y="78" width="480" height="24" fill="#0f6b57"/>
<text x="794" y="96" font-family="Arial, sans-serif" font-size="14" fill="#111827">6/7</text>
<text x="24" y="138" font-family="Arial, sans-serif" font-size="15" fill="#111827">Live exact matches</text>
<rect x="220" y="120" width="560" height="24" fill="#e5e7eb"/>
<rect x="220" y="120" width="0" height="24" fill="#0f6b57"/>
<text x="794" y="138" font-family="Arial, sans-serif" font-size="14" fill="#111827">0/2</text>
<text x="24" y="180" font-family="Arial, sans-serif" font-size="15" fill="#111827">Heuristic wins</text>
<rect x="220" y="162" width="560" height="24" fill="#e5e7eb"/>
<rect x="220" y="162" width="0" height="24" fill="#0f6b57"/>
<text x="794" y="180" font-family="Arial, sans-serif" font-size="14" fill="#111827">0/2</text>
<text x="24" y="222" font-family="Arial, sans-serif" font-size="15" fill="#111827">External solver records</text>
<rect x="220" y="204" width="560" height="24" fill="#e5e7eb"/>
<rect x="220" y="204" width="0" height="24" fill="#0f6b57"/>
<text x="794" y="222" font-family="Arial, sans-serif" font-size="14" fill="#111827">0/4</text>
<text x="24" y="264" font-family="Arial, sans-serif" font-size="15" fill="#111827">Quantum test commands</text>
<rect x="220" y="246" width="560" height="24" fill="#e5e7eb"/>
<rect x="220" y="246" width="0" height="24" fill="#0f6b57"/>
<text x="794" y="264" font-family="Arial, sans-serif" font-size="14" fill="#111827">0/1</text>
<text x="24" y="306" font-family="Arial, sans-serif" font-size="15" fill="#111827">High-qubit exact cases</text>
<rect x="220" y="288" width="560" height="24" fill="#e5e7eb"/>
<rect x="220" y="288" width="560" height="24" fill="#0f6b57"/>
<text x="794" y="306" font-family="Arial, sans-serif" font-size="14" fill="#111827">11/11</text>
<text x="24" y="348" font-family="Arial, sans-serif" font-size="15" fill="#111827">Publishable claims</text>
<rect x="220" y="330" width="560" height="24" fill="#e5e7eb"/>
<rect x="220" y="330" width="186" height="24" fill="#0f6b57"/>
<text x="794" y="348" font-family="Arial, sans-serif" font-size="14" fill="#111827">2/6</text>
</svg>